<svg width="38" height="38" viewBox="0 0 38 38" fill="none" xmlns="http://www.w3.org/2000/svg">
<g id="layers frame" clip-path="url(#clip0)">
<g id="layers">
<path id="Vector" d="M40.7028 19C40.7028 18.0975 40.2013 17.286 39.3938 16.8817L36.2143 15.292L39.3938 13.7023C39.3939 13.7022 39.3941 13.7021 39.3941 13.7021C40.2015 13.298 40.7029 12.4864 40.7029 11.5839C40.7029 10.6816 40.2014 9.86998 39.394 9.46572L21.444 0.490967C20.1335 -0.16367 18.569 -0.16367 17.2584 0.49105L-0.691311 9.46613C-1.49849 9.87006 -2 10.6816 -2 11.584C-2 12.4865 -1.49858 13.298 -0.69106 13.7023L2.48838 15.292L-0.691477 16.8819C-1.49858 17.286 -2 18.0975 -2 19C-2 19.9025 -1.49858 20.7141 -0.69106 21.1182L2.48838 22.708L-0.69081 24.2976C-1.49791 24.7008 -1.99967 25.5121 -2 26.4147C-2.00033 27.3178 -1.49891 28.1298 -0.69106 28.5342L17.2587 37.5091C17.9139 37.8364 18.6324 38 19.3513 38C20.0702 38 20.789 37.8363 21.4443 37.509L39.3941 28.5341C40.2016 28.13 40.7031 27.3179 40.7028 26.4148C40.7024 25.5122 40.2007 24.7009 39.3938 24.2979L36.2143 22.7082L39.3941 21.1182C40.2013 20.7141 40.7028 19.9025 40.7028 19ZM0.187265 11.9466C-0.0078162 11.8489 -0.0368408 11.6775 -0.0368408 11.5841C-0.0368408 11.4907 -0.00764937 11.3193 0.186932 11.2219L18.1361 2.24728C18.5167 2.05712 18.9341 1.96221 19.3515 1.96221C19.7688 1.96221 20.1862 2.05721 20.5665 2.2472L38.5156 11.2217C38.7105 11.3193 38.7397 11.4907 38.7397 11.5841C38.7397 11.6775 38.7107 11.8489 38.5156 11.9466L20.5667 20.9209C19.8057 21.3011 18.8971 21.3011 18.1364 20.921L0.187265 11.9466ZM38.5162 26.0538C38.7105 26.1509 38.7396 26.322 38.7396 26.4155C38.7397 26.5091 38.7106 26.6808 38.5158 26.7783L20.5667 35.7528C19.8056 36.133 18.897 36.1331 18.1364 35.7529L0.187265 26.7783C-0.0078162 26.6807 -0.0369242 26.509 -0.0368408 26.4154C-0.0368408 26.322 -0.00781618 26.1509 0.186932 26.0537L4.6834 23.8054L17.2587 30.093C17.9139 30.4203 18.6324 30.5839 19.3512 30.5839C20.0701 30.5839 20.7889 30.4202 21.4442 30.0929L34.0192 23.8054L38.5162 26.0538ZM38.5157 19.3623L20.5667 28.3369C19.8056 28.7171 18.897 28.7172 18.1364 28.337L0.187265 19.3625C-0.0078162 19.2649 -0.0368408 19.0935 -0.0368408 19.0001C-0.0368408 18.9065 -0.00781618 18.7353 0.186932 18.6378L4.6834 16.3896L17.2587 22.6771C17.9138 23.0045 18.6325 23.168 19.3512 23.168C20.0699 23.168 20.7888 23.0044 21.4441 22.677L34.0193 16.3895L38.5154 18.6376C38.7105 18.7352 38.7395 18.9065 38.7395 19C38.7396 19.0934 38.7105 19.2648 38.5157 19.3623Z" fill="white"/>
</g>
</g>
<defs>
<clipPath id="clip0">
<rect width="38" height="38" fill="white"/>
</clipPath>
</defs>
</svg>
