<?xml version="1.0" encoding="utf-8"?>
<!-- Generator: Adobe Illustrator 23.0.3, SVG Export Plug-In . SVG Version: 6.00 Build 0)  -->
<svg version="1.1" id="Layer_3" xmlns="http://www.w3.org/2000/svg" xmlns:xlink="http://www.w3.org/1999/xlink" x="0px" y="0px"
	 viewBox="0 0 1279 1080" style="enable-background:new 0 0 1279 1080;" xml:space="preserve">
<style type="text/css">
	.st0{fill:#CC0000;stroke:#FFFFFF;stroke-width:14;stroke-miterlimit:10;}
	.st1{fill:#FFFFFF;}
</style>
<path class="st0" d="M179.13,387.26c42.28,44.45,84.56,88.9,126.84,133.35c9.76-2.17,19.51-4.34,29.27-6.5
	c30.72,41.92,61.43,83.84,92.15,125.76c-34.36,38.37-68.7,76.76-103.02,115.18c-58.96,66-117.86,132.04-176.69,198.14
	c170.95,0,341.89,0,512.84,0c7.82-7.82,15.63-15.63,23.45-23.45c6.86,6.86,13.73,13.73,20.59,20.59c117.22,0,234.43,0,351.65,0
	c-76.73-76.73-153.47-153.47-230.2-230.2c70.22-121.43,140.44-242.87,210.67-364.3c25.3-11.93,50.59-23.85,75.89-35.78
	c-3.98-52.76-7.95-105.52-11.93-158.28c-9.76-21.32-19.51-42.64-29.27-63.96c-13.85-6.29-36.23-14.26-63.96-14.09
	c-19.99,0.12-39.41,4.45-86.73,26.02c-25.98,11.85-60.81,29.09-100.82,53.12c2.17,16.98,4.34,33.97,6.5,50.95
	c-79.14,86.37-158.28,172.74-237.42,259.11c-15.9-19.51-31.8-39.03-47.7-58.54c5.06-9.03,10.12-18.07,15.18-27.1
	c-8.31-50.95-16.62-101.91-24.93-152.86c-20.24-31.08-40.47-62.16-60.71-93.24c-35.41-33.25-70.83-66.49-106.24-99.74
	c-76.25,96.49-152.5,192.98-228.75,289.46C150.22,349.68,164.67,368.47,179.13,387.26z"/>
<path class="st1" d="M165.81,369.95c22.38,7.15,44.76,14.31,67.13,21.46c14.84-17.39,29.68-34.79,44.52-52.18
	c-32.71-21.16-65.42-42.32-98.13-63.49c2.25-2.84,4.49-5.68,6.74-8.52c35.8,21.68,71.6,43.37,107.4,65.05
	c5.1-1.86,10.2-3.71,15.31-5.57c11.6-18.32,23.19-36.64,34.79-54.96c-2.09-3.48-4.17-6.96-6.26-10.44
	c-31.62-21.81-63.23-43.62-94.85-65.44c2.47-3.13,4.94-6.25,7.41-9.38c31,21,62,41.99,93,62.99c-0.93-6.73-1.86-13.45-2.78-20.18
	c11.83-11.6,23.65-23.19,35.48-34.79c-26.14-22.62-52.27-45.25-78.41-67.87c2.16-2.73,4.31-5.46,6.47-8.18
	c27.46,22.8,54.92,45.6,82.38,68.4c1.39,1.62,2.78,3.25,4.17,4.87c26.86-16.86,53.72-33.72,80.59-50.58
	c1.43,2.25,2.86,4.5,4.29,6.75c-27.36,17.16-54.73,34.32-82.09,51.48c-13.91,10.9-27.83,21.8-41.74,32.7
	c2.09,11.13,4.17,22.26,6.26,33.39c5.57,7.88,11.13,15.77,16.7,23.65c26.9-10.9,53.8-21.8,80.7-32.7
	c6.49-11.36,12.99-22.73,19.48-34.09c-0.46,11.6-0.93,23.19-1.39,34.79c-32.47,14.61-64.93,29.22-97.4,43.83
	c-6.96-7.65-13.91-15.31-20.87-22.96c-12.75,17.86-25.51,35.71-38.26,53.57c-9.97,3.48-19.94,6.96-29.92,10.44
	c-16.23,19.02-32.47,38.03-48.7,57.05C213.82,389.36,189.82,379.66,165.81,369.95z"/>
<path class="st1" d="M556.41,387.26c-18.53,20.34-37.07,40.68-55.6,61.02c13.48-11.31,26.95-22.61,40.43-33.92
	C546.29,405.33,551.35,396.29,556.41,387.26z"/>
<path class="st1" d="M335.24,514.1c15.6-1.89,31.2-3.79,46.8-5.68c-11.87,6.99-23.73,13.97-35.6,20.96
	C342.71,524.29,338.98,519.2,335.24,514.1z"/>
<path class="st1" d="M824.24,160.23c19.57,48.91,39.13,97.82,58.7,146.73c-18.86-31.05-37.72-62.11-56.58-93.16
	c-2.17-16.98-4.34-33.97-6.5-50.95C821.31,161.97,822.77,161.1,824.24,160.23z"/>
<path class="st1" d="M915.65,318.93c33.8-13.59,67.59-27.18,101.39-40.77c8.76-14.48,17.52-28.97,26.29-43.45
	c-5.19,17.35-10.37,34.69-15.56,52.04C990.4,297.47,953.03,308.2,915.65,318.93z"/>
<path class="st1" d="M1036.68,355.82c-5.65-2.64-11.3-5.28-16.95-7.92c27.24-7.54,54.48-15.08,81.72-22.62
	C1079.86,335.46,1058.27,345.64,1036.68,355.82z"/>
<path class="st1" d="M826.01,720.12c-47.35,69.87-94.69,139.74-142.04,209.61c5.25,5.25,10.51,10.51,15.76,15.76
	C741.83,870.37,783.92,795.24,826.01,720.12z"/>
<path class="st1" d="M418.42,627.61c40.49-31.25,80.99-62.49,121.48-93.74c-37.5,35.33-75,70.66-112.5,106
	C424.4,635.78,421.41,631.69,418.42,627.61z"/>
</svg>
