<svg width="96" height="80" viewBox="0 0 96 80" fill="none" xmlns="http://www.w3.org/2000/svg">
<path d="M13.4453 28.6859C16.6188 31.9785 19.7923 35.2711 22.9657 38.5637C23.6983 38.403 24.4301 38.2422 25.1627 38.0822C27.4685 41.1874 29.7736 44.2926 32.0794 47.3978C29.5004 50.24 26.9228 53.0837 24.3468 55.9296C19.9214 60.8185 15.5004 65.7104 11.0847 70.6067C23.916 70.6067 36.7465 70.6067 49.5778 70.6067C50.1648 70.0274 50.751 69.4489 51.3379 68.8697C51.8528 69.3778 52.3685 69.8867 52.8834 70.3948C61.6818 70.3948 70.4794 70.3948 79.2778 70.3948C73.5185 64.7111 67.7585 59.0267 61.9993 53.343C67.2699 44.3482 72.5405 35.3526 77.8119 26.3578C79.7108 25.4741 81.6091 24.5911 83.5081 23.7074C83.2093 19.7993 82.9113 15.8911 82.6126 11.983C81.88 10.4037 81.1482 8.82446 80.4156 7.2452C79.3761 6.77927 77.6963 6.1889 75.6149 6.20149C74.1145 6.21038 72.6568 6.53112 69.1051 8.1289C67.155 9.00668 64.5407 10.2837 61.5376 12.0637C61.7005 13.3215 61.8634 14.58 62.0255 15.8378C56.0854 22.2356 50.1452 28.6334 44.2051 35.0311C43.0117 33.5859 41.8182 32.14 40.6248 30.6948C41.0046 30.0259 41.3844 29.3563 41.7642 28.6874C41.1404 24.9133 40.5167 21.1385 39.893 17.3645C38.3738 15.0622 36.8553 12.76 35.3362 10.4578C32.6783 7.99483 30.0198 5.5326 27.3619 3.06964C21.6387 10.2171 15.9155 17.3645 10.1923 24.5111C11.2754 25.9022 12.36 27.2941 13.4453 28.6859Z" fill="#A1A1A1"/>
<path d="M12.4454 27.4037C14.1252 27.9334 15.8051 28.4637 17.4841 28.9934C18.598 27.7052 19.7119 26.4163 20.8257 25.1282C18.3706 23.5608 15.9154 21.9934 13.4602 20.4252C13.6291 20.2149 13.7972 20.0045 13.9661 19.7941C16.6532 21.4 19.3403 23.0067 22.0274 24.6126C22.4102 24.4749 22.793 24.3378 23.1766 24.2C24.0473 22.843 24.9172 21.486 25.7879 20.1289C25.631 19.8711 25.4749 19.6134 25.318 19.3556C22.9446 17.74 20.572 16.1245 18.1987 14.5082C18.3841 14.2763 18.5695 14.0452 18.7549 13.8134C21.0817 15.3689 23.4085 16.9237 25.7353 18.4793C25.6655 17.9808 25.5957 17.483 25.5267 16.9845C26.4146 16.1252 27.3018 15.2667 28.1897 14.4074C26.2277 12.7319 24.2664 11.0556 22.3044 9.38004C22.4665 9.17781 22.6279 8.97559 22.79 8.77411C24.8511 10.463 26.9122 12.1519 28.9734 13.8408C29.0777 13.9608 29.182 14.0815 29.2863 14.2015C31.3024 12.9526 33.3185 11.7037 35.3353 10.4549C35.4427 10.6215 35.55 10.7882 35.6573 10.9549C33.6037 12.226 31.5494 13.4971 29.4958 14.7682C28.4517 15.5756 27.4069 16.383 26.3628 17.1904C26.5197 18.0149 26.6758 18.8393 26.8327 19.6637C27.2508 20.2474 27.6681 20.8319 28.0862 21.4156C30.1052 20.6082 32.1243 19.8008 34.1434 18.9934C34.6305 18.1519 35.1184 17.3097 35.6055 16.4682C35.571 17.3274 35.5357 18.186 35.5012 19.0452C33.0641 20.1274 30.6276 21.2097 28.1905 22.2919C27.6681 21.7252 27.1464 21.1578 26.624 20.5912C25.667 21.9141 24.7093 23.2363 23.7523 24.5593C23.0039 24.8171 22.2556 25.0749 21.5065 25.3326C20.2883 26.7415 19.0694 28.1497 17.8512 29.5586C16.049 28.8415 14.2476 28.123 12.4454 27.4037Z" fill="black"/>
<path d="M41.7635 28.686C40.3726 30.1926 38.981 31.6993 37.5902 33.206C38.602 32.3682 39.613 31.5312 40.6248 30.6934C41.0039 30.0245 41.3837 29.3549 41.7635 28.686Z" fill="black"/>
<path d="M25.1627 38.0814C26.3336 37.9414 27.5046 37.8007 28.6755 37.6607C27.7845 38.1785 26.8943 38.6955 26.0034 39.2133C25.7234 38.8363 25.4434 38.4592 25.1627 38.0814Z" fill="black"/>
<path d="M61.8664 11.8689C63.3353 15.4919 64.8034 19.1148 66.2723 22.7378C64.8567 20.4378 63.4411 18.1371 62.0255 15.837C61.8626 14.5793 61.6997 13.3208 61.5376 12.063C61.6464 11.9978 61.756 11.9333 61.8664 11.8689Z" fill="black"/>
<path d="M68.7274 23.6244C71.2644 22.6178 73.8006 21.6111 76.3376 20.6044C76.9951 19.5319 77.6527 18.4585 78.3109 17.3859C77.9214 18.6711 77.5326 19.9556 77.143 21.2407C74.3381 22.0348 71.5331 22.8296 68.7274 23.6244Z" fill="black"/>
<path d="M77.8118 26.357C77.3877 26.1615 76.9636 25.9659 76.5396 25.7703C78.5841 25.2118 80.6287 24.6533 82.6733 24.0948C81.0528 24.8489 79.4323 25.6029 77.8118 26.357Z" fill="black"/>
<path d="M61.9992 53.3422C58.4452 58.5178 54.8919 63.6933 51.3379 68.8689C51.7319 69.2578 52.1268 69.6474 52.5208 70.0363C55.6808 64.4719 58.84 58.9067 61.9992 53.3422Z" fill="black"/>
<path d="M31.4061 46.4897C34.4453 44.1749 37.4851 41.8608 40.5243 39.546C37.7096 42.163 34.8949 44.78 32.0802 47.3978C31.855 47.0949 31.6306 46.7919 31.4061 46.4897Z" fill="black"/>
</svg>
