<svg width="15" height="15" viewBox="0 0 15 15" fill="none" xmlns="http://www.w3.org/2000/svg">
<path d="M6.60568 0C2.96341 0 0 2.96341 0 6.60568C0 10.2482 2.96341 13.2114 6.60568 13.2114C10.2482 13.2114 13.2114 10.2482 13.2114 6.60568C13.2114 2.96341 10.2482 0 6.60568 0ZM6.60568 11.9919C3.63577 11.9919 1.21951 9.57562 1.21951 6.60571C1.21951 3.6358 3.63577 1.21951 6.60568 1.21951C9.57559 1.21951 11.9919 3.63577 11.9919 6.60568C11.9919 9.57559 9.57559 11.9919 6.60568 11.9919Z" fill="#30FF8F"/>
<path d="M14.8484 14.1171L11.8829 11.1516C11.6809 10.9495 11.3536 10.9495 11.1516 11.1516C10.9495 11.3534 10.9495 11.681 11.1516 11.8829L14.1171 14.8485C14.2181 14.9495 14.3503 15 14.4828 15C14.615 15 14.7474 14.9495 14.8484 14.8485C15.0505 14.6466 15.0505 14.319 14.8484 14.1171Z" fill="#30FF8F"/>
</svg>
