<svg width="20" height="20" viewBox="0 0 20 20" fill="none" xmlns="http://www.w3.org/2000/svg">
<path d="M13.8393 11.868C16.2401 8.47789 15.4371 3.78357 12.047 1.38335C8.65687 -1.01686 3.96253 -0.214494 1.56231 3.1762C-0.837906 6.56632 -0.0355392 11.2601 3.35516 13.6603C5.77488 15.3734 8.97403 15.5053 11.5262 13.9981L17.0717 19.5103C17.6705 20.1406 18.6667 20.1658 19.297 19.567C19.9273 18.9688 19.9525 17.9726 19.3543 17.3423C19.3354 17.3223 19.3171 17.3039 19.297 17.285L13.8393 11.868ZM7.69621 12.3819C5.01725 12.3825 2.8453 10.2122 2.84358 7.53329C2.843 4.85434 5.01324 2.68239 7.69277 2.68125C10.3683 2.6801 12.5391 4.84688 12.5442 7.52239C12.5488 10.2019 10.3797 12.3773 7.69965 12.3819C7.6985 12.3819 7.69793 12.3819 7.69621 12.3819Z" fill="white"/>
</svg>
