<svg width="38" height="38" viewBox="0 0 38 38" fill="none" xmlns="http://www.w3.org/2000/svg">
<g id="microphone frame">
<g id="microphone">
<path id="Vector" d="M31.0648 12.6727C30.5722 12.6727 30.1727 13.0721 30.1727 13.5648V19.1389C30.1727 25.0357 25.3753 29.833 19.4784 29.833C13.5815 29.833 8.78421 25.0355 8.78421 19.1388V13.5647C8.78421 13.072 8.38469 12.6726 7.8921 12.6726C7.39937 12.6726 7 13.072 7 13.5647V19.1388C7 25.7195 12.1205 31.126 18.5863 31.5849V36.2158H13.9718C13.4793 36.2158 13.0797 36.6152 13.0797 37.1079C13.0797 37.6006 13.4792 38 13.9718 38H24.9848C25.4774 38 25.8769 37.6006 25.8769 37.1079C25.8769 36.6152 25.4775 36.2158 24.9848 36.2158H20.3704V31.5849C26.8362 31.126 31.9567 25.7194 31.9567 19.1388V13.5647C31.9569 13.0721 31.5573 12.6727 31.0648 12.6727Z" fill="white"/>
<path id="Vector_2" d="M20.0728 0H18.8839C14.8056 0 11.4878 3.31785 11.4878 7.39607V19.7332C11.4878 23.8114 14.8056 27.1292 18.8839 27.1292H20.0728C24.151 27.1292 27.4689 23.8114 27.4689 19.7332V7.39607C27.4689 3.31785 24.151 0 20.0728 0ZM25.6848 9.71168H22.4509C21.9582 9.71168 21.5588 10.1111 21.5588 10.6038C21.5588 11.0965 21.9582 11.4959 22.4509 11.4959H25.6848V13.9791H22.4509C21.9582 13.9791 21.5588 14.3785 21.5588 14.8712C21.5588 15.3639 21.9582 15.7633 22.4509 15.7633H25.6848V18.2466H22.4509C21.9582 18.2466 21.5588 18.646 21.5588 19.1387C21.5588 19.6315 21.9582 20.0308 22.4509 20.0308H25.6767C25.5216 22.9874 23.0675 25.3451 20.0729 25.3451H18.8839C15.8894 25.3451 13.4353 22.9874 13.2801 20.0308H16.5059C16.9986 20.0308 17.398 19.6315 17.398 19.1387C17.398 18.646 16.9986 18.2466 16.5059 18.2466H13.2721V15.7633H16.5059C16.9986 15.7633 17.398 15.3639 17.398 14.8712C17.398 14.3785 16.9986 13.9791 16.5059 13.9791H13.2721V11.4959H16.5059C16.9986 11.4959 17.398 11.0965 17.398 10.6038C17.398 10.1111 16.9986 9.71168 16.5059 9.71168H13.2721V7.39607C13.2721 5.1722 14.5724 3.24623 16.4526 2.33862V4.86078C16.4526 5.35351 16.8521 5.75288 17.3447 5.75288C17.8374 5.75288 18.2368 5.35351 18.2368 4.86078V1.82265C18.4493 1.79809 20.5075 1.79809 20.72 1.82265V4.86078C20.72 5.35351 21.1194 5.75288 21.6121 5.75288C22.1047 5.75288 22.5042 5.35351 22.5042 4.86078V2.33862C24.3845 3.24623 25.6848 5.17205 25.6848 7.396V9.71168V9.71168Z" fill="white"/>
</g>
</g>
</svg>
