<svg width="38" height="38" viewBox="0 0 38 38" fill="none" xmlns="http://www.w3.org/2000/svg">
<g id="presentation frame" clip-path="url(#clip0)">
<g id="presentation">
<path id="Vector" d="M37.0049 1.89441H19.785V0.891255C19.785 0.399041 19.386 0 18.8937 0C18.4015 0 18.0025 0.399041 18.0025 0.891255V1.89441H0.782588C-0.200365 1.89441 -1 2.69405 -1 3.677V5.33098C-1 6.31385 -0.200365 7.11357 0.782588 7.11357H1.02481V27.1468C1.02481 28.1297 1.82444 28.9294 2.8074 28.9294H18.0025V31.5453L11.3977 36.3899C11.0008 36.6811 10.915 37.2389 11.2061 37.6358C11.4974 38.0327 12.0551 38.1184 12.452 37.8273L18.0025 33.7559V37.1087C18.0025 37.6009 18.4015 37.9999 18.8937 37.9999C19.386 37.9999 19.785 37.6009 19.785 37.1087V33.7559L25.3355 37.8273C25.4943 37.9438 25.679 38 25.862 38C26.1362 38 26.4067 37.8739 26.5813 37.6358C26.8725 37.239 26.7867 36.6812 26.3898 36.39L19.785 31.5453V28.9295H34.9801C35.963 28.9295 36.7627 28.1298 36.7627 27.1469V7.11349H37.0049C37.9878 7.11349 38.7875 6.31385 38.7875 5.3309V3.677C38.7875 2.69405 37.9878 1.89441 37.0049 1.89441ZM34.9801 27.1466H2.8074V7.11349H34.9802V27.1466H34.9801ZM37.0049 5.3309H0.782588V3.677H37.005V5.3309H37.0049Z" fill="white"/>
<path id="Vector_2" d="M18.8768 9.69434C18.4338 9.69434 18.0747 10.0534 18.0747 10.4965V16.6477H11.9234C11.4804 16.6477 11.1213 17.0068 11.1213 17.4499C11.1213 21.7263 14.6004 25.2054 18.8769 25.2054C23.1534 25.2054 26.6326 21.7262 26.6326 17.4499C26.6326 13.1735 23.1533 9.69434 18.8768 9.69434ZM18.8768 23.6011C15.7568 23.6011 13.1719 21.2663 12.7776 18.2521H18.8768C19.3198 18.2521 19.6789 17.893 19.6789 17.4499V11.3507C22.6932 11.745 25.0281 14.3299 25.0281 17.4499C25.0282 20.8417 22.2687 23.6011 18.8768 23.6011Z" fill="white"/>
<path id="Vector_3" d="M16.1618 8.86462C12.925 8.86462 10.2917 11.4983 10.2917 14.7355C10.2917 15.1785 10.6508 15.5376 11.0938 15.5376H16.1618C16.6048 15.5376 16.9639 15.1785 16.9639 14.7355V9.66675C16.964 9.22372 16.6049 8.86462 16.1618 8.86462ZM15.3597 13.9333H11.9716C12.2982 12.2227 13.6494 10.8713 15.3597 10.5446V13.9333Z" fill="white"/>
</g>
</g>
<defs>
<clipPath id="clip0">
<rect width="38" height="38" fill="white"/>
</clipPath>
</defs>
</svg>
